<?xml version="1.0" encoding="UTF-8"?>
<!DOCTYPE svg PUBLIC "-//W3C//DTD SVG 1.1//EN" "http://www.w3.org/Graphics/SVG/1.1/DTD/svg11.dtd">
<svg xmlns="http://www.w3.org/2000/svg" version="1.1" width="209px" height="84px" style="shape-rendering:geometricPrecision; text-rendering:geometricPrecision; image-rendering:optimizeQuality; fill-rule:evenodd; clip-rule:evenodd" xmlns:xlink="http://www.w3.org/1999/xlink">
<g><path style="opacity:0.004" fill="#0e0400" d="M 57.5,-0.5 C 57.8333,-0.5 58.1667,-0.5 58.5,-0.5C 59.625,0.652248 59.625,1.65225 58.5,2.5C 58.1583,1.66175 57.4916,1.32842 56.5,1.5C 56.8333,0.833333 57.1667,0.166667 57.5,-0.5 Z"/></g>
<g><path style="opacity:1" fill="#e4c939" d="M 56.5,1.5 C 57.4916,1.32842 58.1583,1.66175 58.5,2.5C 58.3832,4.4835 59.0499,6.15017 60.5,7.5C 63.662,8.98782 66.662,10.6545 69.5,12.5C 69.5,13.5 69.5,14.5 69.5,15.5C 67.8008,15.6602 66.1341,15.4935 64.5,15C 62.0132,13.208 59.3465,11.708 56.5,10.5C 55.7251,8.15677 55.0584,5.82343 54.5,3.5C 54.8333,2.5 55.5,1.83333 56.5,1.5 Z"/></g>
<g><path style="opacity:1" fill="#8f6524" d="M 53.5,11.5 C 53.8333,11.5 54.1667,11.5 54.5,11.5C 55.1495,13.4352 55.4828,15.4352 55.5,17.5C 55.5,17.8333 55.5,18.1667 55.5,18.5C 54.7109,18.2172 54.0442,17.7172 53.5,17C 54.1383,15.2933 54.1383,13.46 53.5,11.5 Z"/></g>
<g><path style="opacity:1" fill="#e4b134" d="M 54.5,3.5 C 55.0584,5.82343 55.7251,8.15677 56.5,10.5C 59.3465,11.708 62.0132,13.208 64.5,15C 66.1341,15.4935 67.8008,15.6602 69.5,15.5C 69.5,14.5 69.5,13.5 69.5,12.5C 71.914,13.9108 73.5806,15.9108 74.5,18.5C 74.5,19.1667 74.5,19.8333 74.5,20.5C 69.3459,20.5913 65.0126,18.4247 61.5,14C 58.9398,13.6162 56.6064,12.7829 54.5,11.5C 54.1667,11.5 53.8333,11.5 53.5,11.5C 52.0271,8.54805 52.3605,5.88139 54.5,3.5 Z"/></g>
<g><path style="opacity:1" fill="#9f723b" d="M 79.5,19.5 C 77.8828,20.038 76.2161,20.3713 74.5,20.5C 74.5,19.8333 74.5,19.1667 74.5,18.5C 75.1174,18.6107 75.6174,18.944 76,19.5C 77.1668,15.6667 78.3335,15.6667 79.5,19.5 Z"/></g>
<g><path style="opacity:1" fill="#f88b28" d="M 55.5,17.5 C 58.8503,19.1403 62.517,19.9737 66.5,20C 68.2747,27.0578 72.2747,28.8911 78.5,25.5C 78.5086,27.3084 78.0086,28.9751 77,30.5C 75.7496,29.4267 74.4162,29.4267 73,30.5C 70.8533,28.5099 68.3533,27.1766 65.5,26.5C 62.7654,28.1251 59.7654,28.7918 56.5,28.5C 56.8064,25.6146 56.4731,22.9479 55.5,20.5C 55.5,19.8333 55.5,19.1667 55.5,18.5C 55.5,18.1667 55.5,17.8333 55.5,17.5 Z"/></g>
<g><path style="opacity:1" fill="#dbdbdb" d="M 119.5,26.5 C 119.574,24.5891 120.574,23.4224 122.5,23C 130.547,20.1802 136.214,22.6802 139.5,30.5C 140.325,31.3857 141.325,31.719 142.5,31.5C 139.894,33.4211 139.894,35.4211 142.5,37.5C 142.376,38.1067 142.043,38.44 141.5,38.5C 141.44,37.9569 141.107,37.6236 140.5,37.5C 139.223,43.6386 135.723,45.6386 130,43.5C 127.363,43.6568 124.863,44.3235 122.5,45.5C 121.186,44.6872 120.019,43.6872 119,42.5C 117.938,43.8993 116.605,44.8993 115,45.5C 112.384,43.8878 110.05,41.8878 108,39.5C 107.667,41.8333 107.333,44.1667 107,46.5C 103.331,48.0093 101.831,46.6759 102.5,42.5C 102.5,41.1667 102.5,39.8333 102.5,38.5C 101.5,38.5 100.5,38.5 99.5,38.5C 97.167,42.6933 93.5003,44.6933 88.5,44.5C 86.626,44.6102 85.126,43.9436 84,42.5C 79.313,34.4909 80.813,28.6576 88.5,25C 90.8333,24.3333 93.1667,24.3333 95.5,25C 96.1122,26.3033 96.4455,27.4699 96.5,28.5C 97.4168,27.8728 98.4168,27.5394 99.5,27.5C 98.8288,26.1529 98.8288,24.9862 99.5,24C 104.266,21.6896 109.266,21.0229 114.5,22C 116.687,23.025 118.354,24.525 119.5,26.5 Z M 107.5,26.5 C 116.603,28.0528 116.769,30.3862 108,33.5C 107.503,31.1902 107.337,28.8568 107.5,26.5 Z M 119.5,26.5 C 120.5,26.8333 121.167,27.5 121.5,28.5C 122.414,31.728 122.747,35.0613 122.5,38.5C 119.534,42.3243 116.867,42.1577 114.5,38C 118.493,35.1806 120.16,31.3473 119.5,26.5 Z M 99.5,27.5 C 100.833,27.5 101.5,28.1667 101.5,29.5C 101.657,30.8734 101.49,32.2068 101,33.5C 100.768,32.2625 100.268,31.2625 99.5,30.5C 99.5,29.5 99.5,28.5 99.5,27.5 Z M 130.5,27.5 C 135.371,31.5889 135.705,36.0889 131.5,41C 130.207,41.49 128.873,41.6567 127.5,41.5C 127.5,40.1667 127.5,38.8333 127.5,37.5C 127.881,33.8812 128.881,30.5479 130.5,27.5 Z M 90.5,29.5 C 93.488,29.1547 94.8213,30.488 94.5,33.5C 94.3666,38.1562 92.1999,39.8229 88,38.5C 86.9271,34.9003 87.7605,31.9003 90.5,29.5 Z"/></g>
<g><path style="opacity:1" fill="#dfdfdf" d="M 162.5,38.5 C 161.262,38.19 161.262,37.69 162.5,37C 161.906,36.5357 161.239,36.369 160.5,36.5C 160.5,36.1667 160.5,35.8333 160.5,35.5C 161.71,35.0679 162.71,34.4013 163.5,33.5C 163.125,31.3024 162.458,29.3024 161.5,27.5C 161.833,26.1667 162.167,24.8333 162.5,23.5C 166.943,21.5344 171.61,21.0344 176.5,22C 182.047,27.64 181.714,32.9733 175.5,38C 176.868,39.3402 178.201,40.6736 179.5,42C 179.046,43.6217 178.046,44.7884 176.5,45.5C 173.909,43.6201 171.409,41.6201 169,39.5C 168.626,41.898 168.626,44.2313 169,46.5C 167.301,47.4061 165.467,47.7394 163.5,47.5C 163.81,44.2869 163.477,41.2869 162.5,38.5 Z M 168.5,26.5 C 170.591,26.3184 172.591,26.6518 174.5,27.5C 175.614,28.723 175.781,30.0563 175,31.5C 169.5,34.9862 167.333,33.3195 168.5,26.5 Z"/></g>
<g><path style="opacity:1" fill="#774428" d="M 81.5,21.5 C 84.1667,22.8333 84.1667,24.1667 81.5,25.5C 81.5,24.1667 81.5,22.8333 81.5,21.5 Z"/></g>
<g><path style="opacity:0.945" fill="#9c9c9c" d="M 162.5,23.5 C 162.167,24.8333 161.833,26.1667 161.5,27.5C 160.833,27.5 160.167,27.5 159.5,27.5C 160.171,26.1529 160.171,24.9862 159.5,24C 153.509,23.5005 147.509,23.3338 141.5,23.5C 141.737,24.791 141.404,25.791 140.5,26.5C 140.5,25.1667 140.5,23.8333 140.5,22.5C 147.89,22.2363 155.223,22.5696 162.5,23.5 Z"/></g>
<g><path style="opacity:1" fill="#f6a230" d="M 54.5,11.5 C 56.6064,12.7829 58.9398,13.6162 61.5,14C 65.0126,18.4247 69.3459,20.5913 74.5,20.5C 76.2161,20.3713 77.8828,20.038 79.5,19.5C 80.5,19.8333 81.1667,20.5 81.5,21.5C 81.5,22.8333 81.5,24.1667 81.5,25.5C 80.5,25.5 79.5,25.5 78.5,25.5C 72.2747,28.8911 68.2747,27.0578 66.5,20C 62.517,19.9737 58.8503,19.1403 55.5,17.5C 55.4828,15.4352 55.1495,13.4352 54.5,11.5 Z"/></g>
<g><path style="opacity:1" fill="#eaeaea" d="M 159.5,27.5 C 156.833,27.5 154.167,27.5 151.5,27.5C 149.517,27.1568 148.183,27.8235 147.5,29.5C 147.47,30.4972 147.97,31.1639 149,31.5C 151.434,30.6777 153.934,30.3444 156.5,30.5C 156.5,32.5 156.5,34.5 156.5,36.5C 153.5,36.5 150.5,36.5 147.5,36.5C 146.566,37.5676 146.232,38.901 146.5,40.5C 150.833,40.5 155.167,40.5 159.5,40.5C 159.737,41.791 159.404,42.791 158.5,43.5C 156.856,43.7135 155.356,43.3802 154,42.5C 152.887,43.305 151.721,43.9717 150.5,44.5C 147.482,44.7038 144.482,45.0371 141.5,45.5C 141.5,44.5 141.5,43.5 141.5,42.5C 141.5,41.1667 141.5,39.8333 141.5,38.5C 142.043,38.44 142.376,38.1067 142.5,37.5C 139.894,35.4211 139.894,33.4211 142.5,31.5C 142.169,29.6776 141.502,28.0109 140.5,26.5C 141.404,25.791 141.737,24.791 141.5,23.5C 147.509,23.3338 153.509,23.5005 159.5,24C 160.171,24.9862 160.171,26.1529 159.5,27.5 Z"/></g>
<g><path style="opacity:1" fill="#dabb44" d="M 47.5,16.5 C 48.791,16.2627 49.791,16.596 50.5,17.5C 48.4195,20.6421 46.0862,23.6421 43.5,26.5C 41.857,26.4802 40.5237,27.1468 39.5,28.5C 38.7025,28.0431 38.3691,27.3764 38.5,26.5C 42.1831,23.8151 45.1831,20.4818 47.5,16.5 Z"/></g>
<g><path style="opacity:0.812" fill="#633432" d="M 34.5,23.5 C 35.8734,23.3433 37.2068,23.51 38.5,24C 35.9598,26.2047 33.7932,28.7047 32,31.5C 31.5,31 31,30.5 30.5,30C 31.719,27.7218 33.0523,25.5551 34.5,23.5 Z"/></g>
<g><path style="opacity:1" fill="#f4872a" d="M 50.5,17.5 C 49.9947,20.8411 49.8281,24.1745 50,27.5C 51.6225,28.0989 53.1225,28.7656 54.5,29.5C 50.8638,30.8268 47.1971,30.8268 43.5,29.5C 42.3777,30.6302 41.0443,31.2969 39.5,31.5C 40.8333,29.8333 42.1667,28.1667 43.5,26.5C 46.0862,23.6421 48.4195,20.6421 50.5,17.5 Z"/></g>
<g><path style="opacity:0.173" fill="#3b3b3b" d="M 151.5,27.5 C 150.329,28.3446 148.995,29.0113 147.5,29.5C 148.183,27.8235 149.517,27.1568 151.5,27.5 Z"/></g>
<g><path style="opacity:1" fill="#e07938" d="M 51.5,25.5 C 53.7089,26.9758 55.0423,26.3091 55.5,23.5C 55.5,22.5 55.5,21.5 55.5,20.5C 56.4731,22.9479 56.8064,25.6146 56.5,28.5C 59.7654,28.7918 62.7654,28.1251 65.5,26.5C 68.3533,27.1766 70.8533,28.5099 73,30.5C 74.4162,29.4267 75.7496,29.4267 77,30.5C 78.0086,28.9751 78.5086,27.3084 78.5,25.5C 79.5,25.5 80.5,25.5 81.5,25.5C 79.5596,28.6959 78.2263,32.0292 77.5,35.5C 72.8202,36.6179 67.8202,36.6179 62.5,35.5C 62.67,34.1779 62.3366,33.0113 61.5,32C 58.8078,31.5702 56.1411,31.7369 53.5,32.5C 53.7845,34.4147 53.4511,36.0813 52.5,37.5C 52.6567,36.1266 52.49,34.7932 52,33.5C 51.6667,33.8333 51.3333,34.1667 51,34.5C 50.6258,33.5838 50.1258,32.7504 49.5,32C 51.744,31.9504 53.4107,31.1171 54.5,29.5C 53.1225,28.7656 51.6225,28.0989 50,27.5C 49.8281,24.1745 49.9947,20.8411 50.5,17.5C 49.791,16.596 48.791,16.2627 47.5,16.5C 48.0471,11.9369 49.2138,11.6035 51,15.5C 52.8195,18.7667 52.9862,22.1 51.5,25.5 Z"/></g>
<g><path style="opacity:0.09" fill="#340f03" d="M 55.5,23.5 C 55.0423,26.3091 53.7089,26.9758 51.5,25.5C 52.8333,24.8333 54.1667,24.1667 55.5,23.5 Z"/></g>
<g><path style="opacity:1" fill="#e99f41" d="M 38.5,26.5 C 38.3691,27.3764 38.7025,28.0431 39.5,28.5C 40.5237,27.1468 41.857,26.4802 43.5,26.5C 42.1667,28.1667 40.8333,29.8333 39.5,31.5C 37.8016,33.5613 36.4683,35.8946 35.5,38.5C 33.5,38.5 32.5,37.5 32.5,35.5C 33.7232,31.9505 35.7232,28.9505 38.5,26.5 Z"/></g>
<g><path style="opacity:1" fill="#f37434" d="M 54.5,29.5 C 53.4107,31.1171 51.744,31.9504 49.5,32C 50.1258,32.7504 50.6258,33.5838 51,34.5C 51.3333,34.1667 51.6667,33.8333 52,33.5C 52.49,34.7932 52.6567,36.1266 52.5,37.5C 49.3331,38.0282 46.1664,38.6949 43,39.5C 40.1163,39.244 37.6163,38.9107 35.5,38.5C 36.4683,35.8946 37.8016,33.5613 39.5,31.5C 41.0443,31.2969 42.3777,30.6302 43.5,29.5C 47.1971,30.8268 50.8638,30.8268 54.5,29.5 Z"/></g>
<g><path style="opacity:1" fill="#f8e7dc" d="M 77.5,35.5 C 78.3414,37.3792 78.6747,39.3792 78.5,41.5C 78.9321,42.7095 79.5987,43.7095 80.5,44.5C 83.1917,45.5905 83.8584,47.2572 82.5,49.5C 73.7695,37.2732 62.7695,34.7732 49.5,42C 43.9387,47.292 41.2721,53.792 41.5,61.5C 41.5,62.1667 41.1667,62.5 40.5,62.5C 40.5,59.8333 40.5,57.1667 40.5,54.5C 40.7563,52.0628 41.4229,49.7294 42.5,47.5C 41.6431,46.5748 40.6431,45.9081 39.5,45.5C 40.0098,41.4733 42.1765,40.4733 46,42.5C 48.3331,40.9321 50.4998,39.2654 52.5,37.5C 53.4511,36.0813 53.7845,34.4147 53.5,32.5C 56.1411,31.7369 58.8078,31.5702 61.5,32C 62.3366,33.0113 62.67,34.1779 62.5,35.5C 67.8202,36.6179 72.8202,36.6179 77.5,35.5 Z"/></g>
<g><path style="opacity:0.635" fill="#737373" d="M 101.5,29.5 C 102.947,31.8382 102.447,33.8382 100,35.5C 99.5065,33.8659 99.3398,32.1992 99.5,30.5C 100.268,31.2625 100.768,32.2625 101,33.5C 101.49,32.2068 101.657,30.8734 101.5,29.5 Z"/></g>
<g><path style="opacity:0.512" fill="#7a7a7a" d="M 121.5,28.5 C 122.777,29.6936 123.444,31.3603 123.5,33.5C 123.493,35.3693 123.16,37.036 122.5,38.5C 122.747,35.0613 122.414,31.728 121.5,28.5 Z"/></g>
<g><path style="opacity:0.235" fill="#5f5f5f" d="M 163.5,33.5 C 162.71,34.4013 161.71,35.0679 160.5,35.5C 160.821,33.9519 161.821,33.2852 163.5,33.5 Z"/></g>
<g><path style="opacity:0.075" fill="#2d2d2d" d="M 130.5,27.5 C 128.881,30.5479 127.881,33.8812 127.5,37.5C 127.5,33.8333 127.5,30.1667 127.5,26.5C 128.791,26.2627 129.791,26.596 130.5,27.5 Z"/></g>
<g><path style="opacity:1" fill="#d06f5e" d="M 82.5,49.5 C 81.8969,53.2728 81.2302,56.9394 80.5,60.5C 80.9252,48.3477 75.0919,41.681 63,40.5C 50.3121,41.6909 44.1454,48.6909 44.5,61.5C 43.596,62.209 43.2627,63.209 43.5,64.5C 42.8333,63.5 42.1667,62.5 41.5,61.5C 41.2721,53.792 43.9387,47.292 49.5,42C 62.7695,34.7732 73.7695,37.2732 82.5,49.5 Z"/></g>
<g><path style="opacity:0.055" fill="#3c3c3c" d="M 160.5,36.5 C 161.239,36.369 161.906,36.5357 162.5,37C 161.262,37.69 161.262,38.19 162.5,38.5C 162.158,39.3382 161.492,39.6716 160.5,39.5C 160.5,38.5 160.5,37.5 160.5,36.5 Z"/></g>
<g><path style="opacity:0.237" fill="#3a3a3a" d="M 147.5,36.5 C 147.5,37.5 147.5,38.5 147.5,39.5C 151.833,39.5 156.167,39.5 160.5,39.5C 160.785,41.288 160.452,42.9547 159.5,44.5C 158.893,44.3764 158.56,44.0431 158.5,43.5C 159.404,42.791 159.737,41.791 159.5,40.5C 155.167,40.5 150.833,40.5 146.5,40.5C 146.232,38.901 146.566,37.5676 147.5,36.5 Z"/></g>
<g><path style="opacity:0.082" fill="#191919" d="M 99.5,38.5 C 100.5,38.5 101.5,38.5 102.5,38.5C 102.5,39.8333 102.5,41.1667 102.5,42.5C 101.659,41.0736 100.659,39.7403 99.5,38.5 Z"/></g>
<g><path style="opacity:1" fill="#fdf8f8" d="M 80.5,60.5 C 78.9192,62.1417 78.2525,64.1417 78.5,66.5C 73.9147,74.5454 66.9147,77.7121 57.5,76C 55.3083,75.074 53.3083,73.9073 51.5,72.5C 47.9859,69.6392 45.6525,65.9725 44.5,61.5C 44.1454,48.6909 50.3121,41.6909 63,40.5C 75.0919,41.681 80.9252,48.3477 80.5,60.5 Z"/></g>
<g><path style="opacity:0.004" fill="#25201e" d="M 78.5,41.5 C 80.0481,41.8212 80.7148,42.8212 80.5,44.5C 79.5987,43.7095 78.9321,42.7095 78.5,41.5 Z"/></g>
<g><path style="opacity:0.463" fill="#4e4e4e" d="M 141.5,42.5 C 141.5,43.5 141.5,44.5 141.5,45.5C 144.482,45.0371 147.482,44.7038 150.5,44.5C 147.456,46.0114 144.122,46.678 140.5,46.5C 140.232,44.901 140.566,43.5676 141.5,42.5 Z"/></g>
<g><path style="opacity:1" fill="#d7d7d7" d="M 100.5,49.5 C 100.433,50.9587 100.766,52.2921 101.5,53.5C 100.828,54.2674 99.9947,54.9341 99,55.5C 96.0851,52.8655 93.2517,52.8655 90.5,55.5C 93.3771,57.861 96.5437,59.861 100,61.5C 102.122,65.7732 100.955,68.9399 96.5,71C 90.9384,72.5809 86.4384,71.0809 83,66.5C 83.0096,64.5285 84.1763,63.5285 86.5,63.5C 88.2779,64.9447 90.2779,65.9447 92.5,66.5C 93.737,66.4435 94.737,65.9435 95.5,65C 92.8333,63.6667 90.1667,62.3333 87.5,61C 85.9632,59.8904 85.2965,58.3904 85.5,56.5C 85.5,55.8333 85.5,55.1667 85.5,54.5C 85.9005,50.9302 87.9005,48.7636 91.5,48C 94.6236,47.6968 97.6236,48.1968 100.5,49.5 Z"/></g>
<g><path style="opacity:1" fill="#d8d8d8" d="M 131.5,49.5 C 131.5,50.5 131.5,51.5 131.5,52.5C 130.833,52.5 130.167,52.5 129.5,52.5C 128.5,52.5 127.5,52.5 126.5,52.5C 124.671,49.4915 125.504,47.8248 129,47.5C 130.376,47.6842 131.209,48.3509 131.5,49.5 Z"/></g>
<g><path style="opacity:1" fill="#dbdbdb" d="M 157.5,65.5 C 158.391,64.8902 159.391,64.5569 160.5,64.5C 160.833,64.5 161.167,64.5 161.5,64.5C 161.833,65.1667 162.167,65.8333 162.5,66.5C 160.587,71.4085 157.254,72.9085 152.5,71C 151.208,66.3919 149.875,61.8919 148.5,57.5C 148.5,56.8333 148.5,56.1667 148.5,55.5C 151.355,54.1264 152.855,51.793 153,48.5C 157.552,46.5544 159.052,47.8877 157.5,52.5C 159.396,53.4656 161.396,53.7989 163.5,53.5C 163.5,55.1667 163.5,56.8333 163.5,58.5C 156.666,57.1842 154.166,59.8508 156,66.5C 156.383,65.944 156.883,65.6107 157.5,65.5 Z"/></g>
<g><path style="opacity:1" fill="#e4e4e4" d="M 137.5,49.5 C 137.5,50.8333 137.5,52.1667 137.5,53.5C 141.119,52.7564 144.785,52.423 148.5,52.5C 148.5,53.5 148.5,54.5 148.5,55.5C 148.5,56.1667 148.5,56.8333 148.5,57.5C 145.086,57.7358 141.753,58.4025 138.5,59.5C 140.743,60.4742 143.076,60.8076 145.5,60.5C 145.328,61.4916 145.662,62.1583 146.5,62.5C 146.5,63.5 146.5,64.5 146.5,65.5C 143.833,65.5 141.167,65.5 138.5,65.5C 138.5,68.1667 138.5,70.8333 138.5,73.5C 136.602,74.0965 134.935,74.0965 133.5,73.5C 133.334,65.8261 133.5,58.1594 134,50.5C 135.011,49.6634 136.178,49.33 137.5,49.5 Z"/></g>
<g><path style="opacity:1" fill="#91433e" d="M 29.5,46.5 C 27.744,47.5521 27.0773,49.2188 27.5,51.5C 27.5,54.1667 27.5,56.8333 27.5,59.5C 25.0293,53.7027 24.8627,47.7027 27,41.5C 28.883,42.6526 29.7163,44.3193 29.5,46.5 Z"/></g>
<g><path style="opacity:1" fill="#ea5e4c" d="M 39.5,45.5 C 40.6431,45.9081 41.6431,46.5748 42.5,47.5C 41.4229,49.7294 40.7563,52.0628 40.5,54.5C 39.6618,54.8417 39.3284,55.5084 39.5,56.5C 37.146,57.6843 34.8126,57.5176 32.5,56C 30.6383,54.6343 28.9717,53.1343 27.5,51.5C 27.0773,49.2188 27.744,47.5521 29.5,46.5C 30.5579,50.8915 33.2246,53.5582 37.5,54.5C 37.1455,51.9333 36.4788,49.4333 35.5,47C 36.061,44.2562 37.3943,43.7562 39.5,45.5 Z"/></g>
<g><path style="opacity:1" fill="#e5774b" d="M 32.5,35.5 C 32.5,37.5 33.5,38.5 35.5,38.5C 37.6163,38.9107 40.1163,39.244 43,39.5C 46.1664,38.6949 49.3331,38.0282 52.5,37.5C 50.4998,39.2654 48.3331,40.9321 46,42.5C 42.1765,40.4733 40.0098,41.4733 39.5,45.5C 37.3943,43.7562 36.061,44.2562 35.5,47C 36.4788,49.4333 37.1455,51.9333 37.5,54.5C 33.2246,53.5582 30.5579,50.8915 29.5,46.5C 31.772,46.0886 32.1053,44.922 30.5,43C 31.0161,40.3309 31.6827,37.8309 32.5,35.5 Z"/></g>
<g><path style="opacity:0.373" fill="#646464" d="M 100.5,49.5 C 101.67,51.2785 103.336,52.2785 105.5,52.5C 104.194,53.4674 103.527,54.8007 103.5,56.5C 102.833,55.5 102.167,54.5 101.5,53.5C 100.766,52.2921 100.433,50.9587 100.5,49.5 Z"/></g>
<g><path style="opacity:1" fill="#d7d7d7" d="M 103.5,56.5 C 103.527,54.8007 104.194,53.4674 105.5,52.5C 106.5,52.5 107.5,52.5 108.5,52.5C 108.201,54.604 108.534,56.604 109.5,58.5C 110.958,56.8615 111.292,55.1949 110.5,53.5C 111.869,51.876 113.536,51.376 115.5,52C 116.67,54.1846 117.836,56.3512 119,58.5C 119.311,56.444 119.811,54.444 120.5,52.5C 122.864,51.1798 124.531,51.8465 125.5,54.5C 124.563,59.0167 123.563,63.5167 122.5,68C 122.645,68.772 122.978,69.4387 123.5,70C 121.466,71.2053 119.466,71.372 117.5,70.5C 116.608,67.7163 115.442,65.0496 114,62.5C 113.235,65.1959 112.068,67.6959 110.5,70C 108.866,70.4935 107.199,70.6602 105.5,70.5C 104.617,65.8683 103.95,61.2016 103.5,56.5 Z"/></g>
<g><path style="opacity:0.004" fill="#070707" d="M 85.5,54.5 C 85.5,55.1667 85.5,55.8333 85.5,56.5C 84.5041,56.4142 83.6708,56.7476 83,57.5C 82.5172,56.552 82.3505,55.552 82.5,54.5C 83.5,54.5 84.5,54.5 85.5,54.5 Z"/></g>
<g><path style="opacity:1" fill="#f2f2f2" d="M 129.5,53.5 C 130.167,53.5 130.833,53.5 131.5,53.5C 131.5,59.1667 131.5,64.8333 131.5,70.5C 129.965,71.3543 128.632,71.3543 127.5,70.5C 126.883,64.4018 127.55,58.7351 129.5,53.5 Z"/></g>
<g><path style="opacity:1" fill="#da4e60" d="M 69.5,47.5 C 70.5,47.5 71.5,47.5 72.5,47.5C 71.2924,53.5829 68.2924,58.5829 63.5,62.5C 58.8374,61.5578 56.1708,58.8911 55.5,54.5C 58.0046,54.9802 60.3379,55.9802 62.5,57.5C 64.8586,54.1486 67.1919,50.8153 69.5,47.5 Z"/></g>
<g><path style="opacity:0.404" fill="#686868" d="M 137.5,49.5 C 136.178,49.33 135.011,49.6634 134,50.5C 133.5,58.1594 133.334,65.8261 133.5,73.5C 132.833,72.5 132.167,71.5 131.5,70.5C 131.5,64.8333 131.5,59.1667 131.5,53.5C 132.833,53.1667 132.833,52.8333 131.5,52.5C 131.5,51.5 131.5,50.5 131.5,49.5C 133.611,48.2584 135.611,48.2584 137.5,49.5 Z"/></g>
<g><path style="opacity:0.01" fill="#1f090a" d="M 27.5,60.5 C 28.6737,61.5137 29.3404,62.847 29.5,64.5C 29.8333,65.1667 30.1667,65.8333 30.5,66.5C 29.5084,66.3284 28.8417,66.6618 28.5,67.5C 27.6618,67.1583 27.3284,66.4916 27.5,65.5C 26.5416,65.0472 25.7083,64.3805 25,63.5C 24.6012,63.7284 24.4346,64.0618 24.5,64.5C 23.4017,63.3991 23.235,62.0657 24,60.5C 25.3493,63.0704 26.516,63.0704 27.5,60.5 Z"/></g>
<g><path style="opacity:1" fill="#e63d5b" d="M 27.5,51.5 C 28.9717,53.1343 30.6383,54.6343 32.5,56C 34.8126,57.5176 37.146,57.6843 39.5,56.5C 39.3354,59.5184 39.502,62.5184 40,65.5C 40.2004,67.3197 41.0337,68.653 42.5,69.5C 43.3382,69.8417 43.6716,70.5084 43.5,71.5C 43.6602,73.1992 43.4935,74.8659 43,76.5C 41.6703,75.4178 40.1703,74.7512 38.5,74.5C 36.8811,72.042 35.0478,69.7087 33,67.5C 32.5172,66.552 32.3505,65.552 32.5,64.5C 31.5,64.5 30.5,64.5 29.5,64.5C 29.3404,62.847 28.6737,61.5137 27.5,60.5C 27.5,60.1667 27.5,59.8333 27.5,59.5C 27.5,56.8333 27.5,54.1667 27.5,51.5 Z"/></g>
<g><path style="opacity:0.635" fill="#6f6f6f" d="M 146.5,62.5 C 145.662,62.1583 145.328,61.4916 145.5,60.5C 145.897,59.475 146.563,59.3083 147.5,60C 146.748,60.6708 146.414,61.5041 146.5,62.5 Z"/></g>
<g><path style="opacity:0.11" fill="#2f2f2f" d="M 126.5,52.5 C 127.5,52.5 128.5,52.5 129.5,52.5C 129.5,52.8333 129.5,53.1667 129.5,53.5C 127.55,58.7351 126.883,64.4018 127.5,70.5C 126.51,64.69 126.177,58.69 126.5,52.5 Z"/></g>
<g><path style="opacity:0.471" fill="#545454" d="M 160.5,64.5 C 159.391,64.5569 158.391,64.8902 157.5,65.5C 158.053,63.4482 159.053,63.1148 160.5,64.5 Z"/></g>
<g><path style="opacity:1" fill="#d76b81" d="M 40.5,54.5 C 40.5,57.1667 40.5,59.8333 40.5,62.5C 41.1667,64.8333 41.8333,67.1667 42.5,69.5C 41.0337,68.653 40.2004,67.3197 40,65.5C 39.502,62.5184 39.3354,59.5184 39.5,56.5C 39.3284,55.5084 39.6618,54.8417 40.5,54.5 Z"/></g>
<g><path style="opacity:0.055" fill="#292929" d="M 161.5,64.5 C 163.424,64.7107 163.757,65.3774 162.5,66.5C 162.167,65.8333 161.833,65.1667 161.5,64.5 Z"/></g>
<g><path style="opacity:0.863" fill="#673d3b" d="M 27.5,65.5 C 27.3284,66.4916 27.6618,67.1583 28.5,67.5C 31.4784,70.7149 31.145,71.5483 27.5,70C 25.84,68.5123 24.84,66.679 24.5,64.5C 24.4346,64.0618 24.6012,63.7284 25,63.5C 25.7083,64.3805 26.5416,65.0472 27.5,65.5 Z"/></g>
<g><path style="opacity:1" fill="#a53351" d="M 29.5,64.5 C 30.5,64.5 31.5,64.5 32.5,64.5C 32.3505,65.552 32.5172,66.552 33,67.5C 35.0478,69.7087 36.8811,72.042 38.5,74.5C 34.855,72.8551 32.1884,70.1884 30.5,66.5C 30.1667,65.8333 29.8333,65.1667 29.5,64.5 Z"/></g>
<g><path style="opacity:0.004" fill="#000000" d="M 81.5,67.5 C 82.8333,68.1667 82.8333,68.1667 81.5,67.5 Z"/></g>
<g><path style="opacity:1" fill="#f7d4e2" d="M 41.5,61.5 C 42.1667,62.5 42.8333,63.5 43.5,64.5C 44.3358,68.984 46.6691,72.3174 50.5,74.5C 51.7489,76.1361 53.4156,77.3028 55.5,78C 65.5292,80.6372 73.8625,78.1372 80.5,70.5C 81.1667,70.5 81.5,70.8333 81.5,71.5C 79.8333,73.5 78.1667,75.5 76.5,77.5C 74.5739,79.2927 72.2406,80.2927 69.5,80.5C 65.1667,80.5 60.8333,80.5 56.5,80.5C 51.3799,78.7256 47.0466,75.7256 43.5,71.5C 43.6716,70.5084 43.3382,69.8417 42.5,69.5C 41.8333,67.1667 41.1667,64.8333 40.5,62.5C 41.1667,62.5 41.5,62.1667 41.5,61.5 Z"/></g>
<g><path style="opacity:1" fill="#cc4c72" d="M 44.5,61.5 C 45.6525,65.9725 47.9859,69.6392 51.5,72.5C 51.6716,73.4916 51.3382,74.1583 50.5,74.5C 46.6691,72.3174 44.3358,68.984 43.5,64.5C 43.2627,63.209 43.596,62.209 44.5,61.5 Z"/></g>
<g><path style="opacity:1" fill="#be3d5e" d="M 43.5,71.5 C 47.0466,75.7256 51.3799,78.7256 56.5,80.5C 56.5,80.8333 56.5,81.1667 56.5,81.5C 51.1062,81.3104 45.7728,79.8104 40.5,77C 39.6195,76.2917 38.9528,75.4584 38.5,74.5C 40.1703,74.7512 41.6703,75.4178 43,76.5C 43.4935,74.8659 43.6602,73.1992 43.5,71.5 Z"/></g>
<g><path style="opacity:1" fill="#8f3b57" d="M 81.5,71.5 C 82.2891,71.7828 82.9558,72.2828 83.5,73C 81.7885,75.5193 79.4552,77.0193 76.5,77.5C 78.1667,75.5 79.8333,73.5 81.5,71.5 Z"/></g>
<g><path style="opacity:1" fill="#d55e62" d="M 78.5,66.5 C 79.3446,67.6715 80.0113,69.0048 80.5,70.5C 73.8625,78.1372 65.5292,80.6372 55.5,78C 53.4156,77.3028 51.7489,76.1361 50.5,74.5C 51.3382,74.1583 51.6716,73.4916 51.5,72.5C 53.3083,73.9073 55.3083,75.074 57.5,76C 66.9147,77.7121 73.9147,74.5454 78.5,66.5 Z"/></g>
<g><path style="opacity:1" fill="#a0808a" d="M 56.5,81.5 C 56.5,81.1667 56.5,80.8333 56.5,80.5C 60.8333,80.5 65.1667,80.5 69.5,80.5C 65.2816,81.9008 60.9483,82.2341 56.5,81.5 Z"/></g>
</svg>
